<?xml version="1.0" encoding="UTF-8" standalone="no"?>
<svg
   xmlns:dc="http://purl.org/dc/elements/1.1/"
   xmlns:cc="http://creativecommons.org/ns#"
   xmlns:rdf="http://www.w3.org/1999/02/22-rdf-syntax-ns#"
   xmlns:svg="http://www.w3.org/2000/svg"
   xmlns="http://www.w3.org/2000/svg"
   viewBox="0 0 208 212"
   height="212"
   width="208"
   xml:space="preserve"
   id="svg2"
   version="1.1"><metadata
     id="metadata8"><rdf:RDF><cc:Work
         rdf:about=""><dc:format>image/svg+xml</dc:format><dc:type
           rdf:resource="http://purl.org/dc/dcmitype/StillImage" /></cc:Work></rdf:RDF></metadata><defs
     id="defs6" /><g
     transform="matrix(1.3333333,0,0,-1.3333333,0,212)"
     id="g10"><g
       transform="scale(0.1)"
       id="g12"><path
         id="path14"
         style="fill:#8c0f0f;fill-opacity:1;fill-rule:evenodd;stroke:none"
         d="M 1326.45,1101.52 C 1197.77,1301.84 1020.94,1421.33 795.941,1460 l -61.019,130 -63.473,-55 60.973,-130 c 48.668,-6.64 96.168,-18.67 142.5,-35.98 151.328,-45 274.488,-134.18 369.488,-267.5 H 963.441 l -130,277.5 -63.519,-54.53 129.488,-277.5 h 281.53 l 51.99,44.53 c 10.35,-14.33 20.35,-29.18 30,-44.53 h 131.99 l 64.03,54.53 h -132.5" /><path
         id="path16"
         style="fill:#e82b2e;fill-opacity:1;fill-rule:evenodd;stroke:none"
         d="m 734.922,1590 c 151.988,-10.66 291.838,-59.84 419.488,-147.5 128.01,-88.01 229.34,-201.64 304.03,-340.98 H 1326.45 C 1197.77,1301.84 1020.94,1421.33 795.941,1460 l -61.019,130" /><path
         id="path18"
         style="fill:#e82b2e;fill-opacity:1;fill-rule:evenodd;stroke:none"
         d="m 833.441,1379.02 c 169.329,-38.36 306.329,-130.86 410.969,-277.5 H 962.93 l -129.489,277.5" /><path
         id="path20"
         style="fill:#4c7521;fill-opacity:1;fill-rule:evenodd;stroke:none"
         d="m 456.449,1402.5 c -5,-2.66 -10,-5.51 -15,-8.48 -0.359,0 -0.508,0 -0.508,0 -5,-3 -9.851,-6.01 -14.492,-9.02 -0.359,-0.31 -0.668,-0.51 -1.019,-0.51 -4.649,-2.97 -9.34,-5.97 -13.981,-8.98 -0.359,-0.35 -0.668,-0.67 -1.019,-1.02 -4.34,-2.97 -8.52,-5.97 -12.5,-8.98 -0.66,-0.35 -1.328,-0.82 -1.989,-1.49 -4.031,-3 -8.011,-6.17 -11.992,-9.53 -1.019,-0.31 -1.679,-0.82 -2.039,-1.48 -4.332,-3.01 -8.32,-6.17 -11.988,-9.49 -0.66,-0.67 -1.332,-1.18 -1.992,-1.53 0,-0.31 -0.16,-0.47 -0.508,-0.47 -10.313,-9.02 -20.313,-18.51 -30,-28.51 66.328,48.32 143.668,78.98 231.988,91.99 l 63.52,55 c -64.34,-9.34 -123.16,-28.32 -176.481,-56.99 0,-0.35 0,-0.51 0,-0.51" /><path
         id="path22"
         style="fill:#4c7521;fill-opacity:1;fill-rule:evenodd;stroke:none"
         d="m 331.449,1176.52 c 0.313,0 0.461,0.16 0.461,0.47 4.031,6.37 8.168,12.5 12.5,18.52 1.02,1.68 1.84,3.16 2.5,4.49 3.68,5 7.352,9.84 11.02,14.49 1.992,2.7 3.832,5.2 5.511,7.5 3.321,4.03 6.829,8.01 10.508,12.03 2.301,2.97 4.801,5.98 7.5,8.99 2.961,3.01 5.821,6.01 8.473,8.98 3.668,3.67 7.187,7.19 10.508,10.51 2.34,2.34 4.84,4.69 7.5,6.99 3.98,4.03 8.16,7.85 12.5,11.53 -21.328,-18.36 -42.5,-36.68 -63.52,-55 -55.969,-48.36 -97.961,-108.01 -125.969,-179.03 H 511.91 l 64.031,54.53 H 294.41 c 10.36,26.64 22.699,51.64 37.039,75" /><path
         id="path24"
         style="fill:#4c7521;fill-opacity:1;fill-rule:evenodd;stroke:none"
         d="m 86.4492,1127.5 c 0.6602,3.36 1.4805,6.68 2.5,10 1.3203,5 2.8125,10 4.4922,15 0.9688,3.67 2.1484,7.34 3.4688,11.02 1.3711,4.64 2.8593,9.14 4.5388,13.47 0.973,3.67 2.141,7.19 3.473,10.51 1.68,4.69 3.359,9.18 5,13.52 1.68,3.67 3.168,7.34 4.488,10.97 1.68,4.34 3.52,8.52 5.512,12.5 1.328,3.67 3.008,7.35 5,11.02 1.68,3.98 3.519,8.01 5.508,11.99 1.679,3.67 3.519,7.34 5.511,11.02 1.637,3.67 3.668,7.5 5.969,11.48 1.68,3.36 3.52,6.84 5.512,10.51 2.348,3.67 4.488,7.34 6.527,11.01 1.992,3.64 4.141,7.31 6.481,10.98 1.992,3.36 4.179,6.84 6.48,10.51 2.352,3.32 4.692,6.68 7.039,10 2.301,3.67 4.641,7.15 6.992,10.51 2.34,3.32 4.649,6.48 6.989,9.49 2.34,3.67 4.84,7.15 7.5,10.51 2.34,3 4.84,6.17 7.5,9.49 2.66,3.32 5.351,6.68 8.011,10 2.34,3.01 4.84,5.82 7.5,8.51 3.008,3.32 5.821,6.64 8.469,10 2.699,2.66 5.36,5.47 8.012,8.48 3.008,3.01 6.019,6.17 9.027,9.49 2.653,2.7 5.313,5.35 7.961,8.01 3.36,3.01 6.531,6.02 9.539,9.02 2.653,2.66 5.461,5.16 8.473,7.5 3.359,2.97 6.68,5.98 10,8.99 0,0.35 0.156,0.51 0.508,0.51 -21.328,-18.36 -42.66,-36.68 -63.981,-55 C 115.078,1300.51 48.4414,1186.68 16.4492,1046.99 H 148.949 l 63.473,55 H 79.9219 c 1.9883,8.67 4.1797,17.19 6.5273,25.51" /><path
         id="path26"
         style="fill:#8ac23f;fill-opacity:1;fill-rule:evenodd;stroke:none"
         d="M 619.922,1379.02 575.43,1101.52 H 294.41 c 59.692,146.64 168.168,239.14 325.512,277.5" /><path
         id="path28"
         style="fill:#8ac23f;fill-opacity:1;fill-rule:evenodd;stroke:none"
         d="M 653.949,1590 632.93,1460 c -213.321,-38.67 -353.321,-158.16 -420,-358.48 H 80.4297 c 31.9923,139.34 98.3203,252.97 198.9803,340.98 101.02,87.66 225.86,136.84 374.539,147.5" /><path
         id="path30"
         style="fill:#11668a;fill-opacity:1;fill-rule:evenodd;stroke:none"
         d="m 1077.93,664.488 129.49,-276.988 63.52,55 -129.49,276.988 -63.52,-55" /><path
         id="path32"
         style="fill:#11668a;fill-opacity:1;fill-rule:evenodd;stroke:none"
         d="m 1429.41,825 c -6.32,39.691 -15.66,78.359 -27.96,116.02 l -58.52,-50.508 c 5.66,-21.332 10.16,-43.172 13.52,-65.512 0.97,-6.328 1.83,-12.809 2.5,-19.488 2.65,-11.684 4.8,-23.321 6.48,-35 23.98,-187.352 -16.17,-341.84 -120.51,-463.524 l 61.02,-130.468 63.47,55 -60.97,130.468 C 1412.77,483.672 1453.09,638.012 1429.41,825" /><path
         id="path34"
         style="fill:#28a6de;fill-opacity:1;fill-rule:evenodd;stroke:none"
         d="m 1342.93,891.02 c 5.66,-21.68 10.16,-43.68 13.52,-66.02 20,-150.98 -8.52,-278.48 -85.51,-382.5 l -129.49,276.988 201.48,171.532" /><path
         id="path36"
         style="fill:#28a6de;fill-opacity:1;fill-rule:evenodd;stroke:none"
         d="m 1496.45,1021.52 c 25.66,-63 43.82,-128.508 54.49,-196.52 30.31,-247.34 -30,-445.309 -181.02,-593.98 l -60.97,130.5 c 104.33,122 144.49,276.492 120.46,463.48 -5.97,39.691 -15.31,78.359 -27.96,116.02 l 95,80.5" /><path
         id="path38"
         style="fill:#914566;fill-opacity:1;fill-rule:evenodd;stroke:none"
         d="m 835.43,205.512 c 81.679,0.66 154.84,17.847 219.49,51.476 l 64.03,55 c -65,-33.629 -138.36,-50.816 -220.001,-51.476 -81.679,0.347 -160.199,17.5 -235.508,51.476 l -58.011,-50 c 26.679,-13.976 53.98,-25.968 81.992,-35.968 48.359,-13.68 97.656,-20.508 148.008,-20.508" /><path
         id="path40"
         style="fill:#914566;fill-opacity:1;fill-rule:evenodd;stroke:none"
         d="M 929.41,59.0195 C 779.41,61.3281 639.609,102.191 509.922,181.52 l -63.473,-55 C 576.09,47.1914 715.941,6.51953 865.941,4.48828 1015.27,6.51953 1142.58,47.1914 1247.93,126.52 l 63.52,55 C 1206.45,101.84 1079.1,61.0195 929.41,59.0195" /><path
         id="path42"
         style="fill:#ee78a6;fill-opacity:1;fill-rule:evenodd;stroke:none"
         d="M 1118.44,311.988 864.922,483.52 663.441,311.988 c 75,-33.629 153.469,-50.816 235.508,-51.476 81.641,0.66 154.801,17.847 219.491,51.476" /><path
         id="path44"
         style="fill:#ee78a6;fill-opacity:1;fill-rule:evenodd;stroke:none"
         d="M 1311.91,181.988 1192.42,262.5 c -80.66,-50.309 -174.65,-75.98 -281.99,-76.988 -76.68,0.347 -151.02,13.828 -223.008,40.508 -28.012,10.308 -55.313,22.5 -81.992,36.48 0,0 -0.16,0 -0.508,0 L 510.43,181.988 C 640.078,102.34 779.922,61.5195 929.922,59.4883 1079.26,61.5195 1206.6,102.34 1311.91,181.988" /><path
         id="path46"
         style="fill:#91570a;fill-opacity:1;fill-rule:evenodd;stroke:none"
         d="m 266.91,825 c -3.32,22.34 -5.461,44.34 -6.48,66.02 l -63.52,-55 c 0.668,-15.668 2.039,-31.68 4.031,-48.008 C 235.59,635.66 308.09,505.512 418.441,397.5 l 51.989,45 C 361.449,546.52 293.59,674.02 266.91,825" /><path
         id="path48"
         style="fill:#91570a;fill-opacity:1;fill-rule:evenodd;stroke:none"
         d="m 72.9297,825 c -10.3516,68.359 -12.1484,133.828 -5.5078,196.52 l -63.47268,-55 C -2.73047,903.828 -0.898438,838.52 9.41016,770.512 55.0781,522.852 176.25,324.84 372.93,176.52 l 63.519,54.5 C 239.77,379.691 118.59,577.66 72.9297,825" /><path
         id="path50"
         style="fill:#f38f23;fill-opacity:1;fill-rule:evenodd;stroke:none"
         d="M 260.941,891.02 514.922,719.488 470.941,442.5 C 361.602,546.52 293.75,674.02 267.422,825 c -3.32,22.34 -5.512,44.34 -6.481,66.02" /><path
         id="path52"
         style="fill:#f38f23;fill-opacity:1;fill-rule:evenodd;stroke:none"
         d="M 67.9297,1021.52 186.91,941.02 C 185.941,903.359 188.441,864.691 194.41,825 228.441,638.012 316.25,483.672 457.93,361.988 L 436.91,231.02 C 240.27,379.691 119.102,577.66 73.4414,825 63.0898,893.359 61.25,958.828 67.9297,1021.52" /><path
         id="path54"
         style="fill:#ffffff;fill-opacity:1;fill-rule:nonzero;stroke:none"
         d="m 514.801,825.98 c -6.172,-1.57 -12.18,-3.75 -18.121,-6.57 -5.942,-2.808 -11.801,-5.738 -17.5,-8.75 -5.7,-3.039 -11.481,-6.012 -17.34,-8.898 -5.82,-2.813 -11.918,-5.082 -18.289,-6.723 -1.871,-0.551 -3.821,-0.859 -5.93,-0.937 -2.191,0 -3.672,1.449 -4.531,4.378 -0.391,1.872 -0.078,3.981 0.93,6.399 1.058,2.5 2.582,4.101 4.531,4.851 l 74.07,31.719 c 0,0.821 -0.082,2.071 -0.16,3.75 -0.121,1.75 -0.082,3.512 0.16,5.313 0.309,1.758 0.859,3.437 1.719,5 0.82,1.558 2.031,2.539 3.59,2.968 2.269,0.622 4.261,0.5 5.941,-0.32 1.641,-0.738 3.117,-1.711 4.367,-2.961 1.332,-1.179 2.543,-2.187 3.602,-3.129 1.129,-0.941 2.262,-1.25 3.43,-0.941 l 2.351,0.633 c 1.758,0.699 4.68,1.867 8.75,3.437 4.141,1.563 8.899,3.321 14.219,5.313 5.308,2.066 10.93,4.258 16.871,6.558 5.937,2.379 11.598,4.532 17.027,6.41 5.512,1.95 10.313,3.75 14.383,5.309 4.059,1.641 7.027,2.973 8.899,3.91 0.511,0.071 1.878,0.461 4.07,1.09 2.18,0.699 3.75,1.25 4.68,1.563 0.941,-3.672 -0.27,-7.192 -3.59,-10.622 -3.239,-3.441 -7.66,-6.8 -13.282,-10 -5.546,-3.25 -11.878,-6.332 -19.058,-9.218 -7.192,-2.813 -14.219,-5.434 -21.102,-7.813 -6.789,-2.429 -13.078,-4.609 -18.898,-6.57 -5.75,-1.988 -10.078,-3.668 -12.969,-5 2.891,-13.75 7.027,-27.891 12.34,-42.34 5.391,-14.488 11.168,-28.91 17.34,-43.277 6.14,-14.301 12.109,-28.563 17.969,-42.813 5.941,-14.301 10.671,-28.09 14.218,-41.41 1.563,-2.5 2.422,-4.527 2.66,-6.09 0.313,-1.488 0.043,-2.66 -0.777,-3.597 -0.75,-0.864 -2.031,-1.524 -3.91,-2.032 -1.871,-0.55 -4.223,-1.05 -7.031,-1.558 -3.871,6.437 -7.77,14.097 -11.719,22.968 -3.871,8.942 -7.77,18.59 -11.723,28.899 -3.867,10.32 -7.808,20.98 -11.867,32.031 -4.07,11.02 -8.09,21.961 -12.031,32.82 -3.988,10.821 -7.891,21.168 -11.719,31.09 -3.871,9.879 -7.66,18.75 -11.41,26.559 z M 738.672,700.59 c -2.192,4.68 -4.613,10.39 -7.192,17.18 -2.5,6.878 -5.109,13.789 -7.808,20.781 -2.731,6.961 -5.434,13.48 -8.121,19.539 -2.742,6.012 -5.711,10.82 -8.91,14.371 -4.371,-22.731 -8.832,-40.742 -13.282,-54.063 -4.379,-13.359 -8.75,-23.238 -13.129,-29.687 -4.371,-6.371 -8.55,-9.961 -12.5,-10.781 -3.859,-0.739 -7.46,0.16 -10.781,2.66 -3.359,2.57 -6.168,6.289 -8.59,11.09 -2.379,4.769 -4.379,9.371 -5.937,13.75 -1.133,4.261 -1.762,10.39 -1.871,18.441 -0.082,8.117 0.269,17.18 1.09,27.18 0.738,10 2.109,20.32 4.058,30.937 2,10.633 4.531,20.391 7.66,29.383 3.2,9.059 6.95,16.789 11.25,23.277 4.262,6.563 9.141,10.551 14.692,12.032 7.89,3.519 14.449,3.359 19.679,-0.469 5.321,-3.871 8.211,-11.871 8.75,-24.063 3.321,-12.617 6.719,-23.277 10.161,-32.027 3.437,-8.75 6.879,-17.109 10.308,-25 3.442,-7.93 6.879,-16.25 10.321,-25 3.511,-8.672 6.949,-19.34 10.308,-32.031 0.621,-2.309 0.863,-4.34 0.781,-6.102 0,-1.789 -2.148,-3.199 -6.41,-4.218 -0.539,-0.231 -1.359,0.039 -2.5,0.781 -1.168,0.828 -1.828,1.488 -2.027,2.039 z m -49.531,124.371 c -2.93,2.5 -5.903,1.949 -8.911,-1.563 -3.039,-3.437 -5.781,-8.597 -8.281,-15.468 -2.5,-6.801 -4.801,-14.77 -6.871,-23.91 -2.109,-9.18 -3.867,-18.36 -5.308,-27.5 -1.372,-9.18 -2.43,-17.809 -3.129,-25.93 -0.743,-8.129 -0.942,-14.77 -0.621,-19.852 1.75,-6.867 3.781,-10.468 6.089,-10.777 2.379,-0.313 4.692,1.449 6.871,5.309 2.27,3.949 4.61,9.3 7.04,16.101 2.5,6.867 4.718,13.981 6.71,21.399 1.961,7.5 3.79,14.73 5.469,21.718 1.762,7.071 3.129,12.813 4.071,17.192 0.621,4.449 0.929,8.519 0.929,12.191 0.082,3.75 0.039,7.258 -0.148,10.617 -0.121,3.442 -0.551,6.762 -1.25,10 -0.75,3.321 -1.641,6.801 -2.66,10.473 z" /><path
         id="path56"
         style="fill:#ffffff;fill-opacity:1;fill-rule:nonzero;stroke:none"
         d="m 769.449,716.371 c -1.051,9.141 -3.121,20.391 -6.25,33.75 -3.039,13.43 -6.558,27.578 -10.621,42.5 -4.058,14.879 -8.476,30.188 -13.277,45.93 -4.77,15.711 -9.531,30.629 -14.223,44.687 -4.769,14.063 -9.297,26.563 -13.598,37.5 -4.25,10.942 -7.89,19.532 -10.929,25.782 1.359,1.57 2.609,2.859 3.75,3.91 1.051,1.019 2.461,1.761 4.219,2.191 1.25,0.309 2.46,0.348 3.589,0.149 1.051,-0.231 2.032,-1.008 2.969,-2.34 13.871,-36.559 26.641,-73.75 38.281,-111.559 11.563,-37.742 22.692,-75.32 33.442,-112.82 0.5,-1.871 1.129,-4.332 1.871,-7.34 0.816,-2.93 1.129,-4.492 0.937,-4.691 -2.187,-1.989 -4.379,-3.239 -6.558,-3.75 -2.192,-0.43 -4.301,-0.391 -6.25,0.16 -2,0.621 -3.68,1.449 -5,2.5 -1.25,1.129 -2.031,2.269 -2.352,3.441 z" /><path
         id="path58"
         style="fill:#ffffff;fill-opacity:1;fill-rule:nonzero;stroke:none"
         d="m 799.84,775.199 c -0.82,-0.551 -2.11,-1.219 -3.899,-2.039 -1.882,-0.859 -3.91,-1.48 -6.101,-1.871 -2.18,-0.309 -4.141,-0.238 -5.93,0.313 -1.879,0.628 -3.129,2.07 -3.75,4.378 -0.32,1.321 -0.238,2.34 0.149,2.969 0.312,0.621 1.062,1.75 2.191,3.43 3.238,4.57 5.621,10 7.191,16.25 1.481,6.25 2.61,12.82 3.43,19.691 0.859,6.879 1.84,13.789 2.969,20.782 1.058,6.949 2.738,13.359 5,19.218 2.39,5.942 5.82,11.129 10.32,15.629 4.57,4.571 10.82,7.813 18.75,9.68 3.32,0.82 7.18,1.019 11.559,0.633 4.453,-0.434 8.75,-1.532 12.812,-3.282 4.141,-1.679 7.848,-4.031 11.09,-7.031 3.328,-2.929 5.629,-6.648 6.879,-11.097 1.25,-1.372 0.82,-3.872 -1.25,-7.5 -1.988,-3.551 -4.961,-7.622 -8.91,-12.192 -3.86,-4.609 -8.36,-9.488 -13.43,-14.68 -5.121,-5.121 -10,-9.96 -14.691,-14.531 -4.688,-4.5 -8.867,-8.437 -12.5,-11.879 -3.559,-3.441 -5.86,-5.898 -6.879,-7.34 -0.43,-2.191 -0.621,-4.652 -0.621,-7.351 0.082,-2.731 0.312,-5.231 0.621,-7.5 0.32,-2.18 0.629,-4.219 0.941,-6.09 0.391,-1.879 0.778,-3.359 1.098,-4.379 0.93,-3.551 1.793,-7.57 2.652,-12.031 0.821,-4.488 2.11,-8.59 3.91,-12.34 1.758,-3.75 4.219,-6.641 7.34,-8.59 3.199,-1.879 7.809,-2.039 13.75,-0.469 6.328,1.641 11.879,4.84 16.559,9.532 4.691,4.687 8.789,9.918 12.351,15.777 3.629,5.82 6.719,11.91 9.219,18.281 2.57,6.45 4.84,12.418 6.719,17.969 1.949,5.621 3.742,10.231 5.312,13.91 1.637,3.75 3.321,5.852 5,6.403 1.95,0.386 4.098,0.546 6.399,0.468 2.39,0 3.949,-1.25 4.691,-3.75 0.821,-3.441 0.508,-7.929 -0.941,-13.441 -1.481,-5.539 -3.75,-11.641 -6.871,-18.277 -3.129,-6.563 -6.949,-13.243 -11.41,-20 -4.368,-6.801 -9.02,-13.051 -13.899,-18.75 -4.808,-5.743 -9.691,-10.704 -14.691,-14.84 -5,-4.063 -9.77,-6.684 -14.219,-7.813 -8.672,-2.308 -15.738,-1.961 -21.25,1.09 -5.551,3.012 -10.078,7.422 -13.59,13.281 -3.441,5.942 -6.211,12.418 -8.289,19.532 -1.992,7.07 -3.902,13.668 -5.781,19.847 z m 32.351,91.711 c -3.242,-0.859 -6.332,-3.359 -9.222,-7.5 -2.809,-4.058 -5.239,-8.82 -7.188,-14.211 -1.871,-5.32 -3.203,-10.59 -3.902,-15.789 -0.75,-5.23 -0.707,-9.371 0.152,-12.5 2.809,0.711 6.641,2.891 11.559,6.57 4.89,3.75 9.57,7.969 14.07,12.649 4.449,4.691 8.199,9.383 11.25,14.07 3.121,4.68 4.211,8.672 3.281,12.031 -0.429,1.641 -1.492,2.891 -3.132,3.75 -1.559,0.821 -3.399,1.321 -5.469,1.559 -2.11,0.313 -4.18,0.352 -6.25,0.16 -1.988,-0.121 -3.711,-0.398 -5.149,-0.789 z" /><path
         id="path60"
         style="fill:#ffffff;fill-opacity:1;fill-rule:nonzero;stroke:none"
         d="m 955.551,754.102 c -8.992,25.386 -17.742,50.859 -26.25,76.41 -8.641,25.508 -17.582,52.027 -26.879,79.527 -1.25,4.57 0.629,7.5 5.629,8.75 l 2.34,0.621 c 0.629,0.199 1.519,-0.39 2.66,-1.711 1.168,-1.371 2.73,-4.027 4.679,-7.969 2,-3.871 4.61,-9.808 7.821,-17.82 3.238,-7.93 7.418,-18.43 12.5,-31.558 5.07,-13.051 11.25,-29.372 18.429,-49.063 0.629,14.141 0.399,27.66 -0.621,40.473 -0.937,12.886 -0.937,24.879 0,35.937 1.02,11.012 3.832,21.281 8.442,30.781 4.679,9.45 12.687,17.649 24.058,24.532 7.192,0.617 13.831,-2.114 20.001,-8.133 6.13,-5.93 11.87,-13.899 17.19,-23.899 5.39,-9.929 10.19,-20.941 14.37,-33.128 4.26,-12.114 7.97,-23.75 11.1,-35 3.2,-11.172 5.97,-21.211 8.28,-30.153 2.38,-8.871 4.29,-15.16 5.78,-18.91 -0.24,-1.68 -0.74,-3.277 -1.56,-4.84 -0.75,-1.488 -1.8,-2.621 -3.13,-3.437 -1.37,-0.864 -2.77,-1.332 -4.22,-1.41 -1.37,-0.122 -2.89,0.628 -4.53,2.187 -0.55,2.07 -1.87,6.289 -4.06,12.66 -2.11,6.442 -4.61,13.942 -7.5,22.5 -2.81,8.512 -5.9,17.653 -9.22,27.34 -3.24,9.691 -6.33,18.832 -9.22,27.5 -2.81,8.633 -5.27,16.133 -7.34,22.5 -2.11,6.332 -3.44,10.621 -4.07,12.813 -6.05,5.937 -11.171,8.828 -15.308,8.75 -4.184,-0.122 -7.813,-2.422 -10.942,-6.872 -3.039,-4.5 -5.39,-10.781 -7.031,-18.91 -1.679,-8.05 -2.969,-16.949 -3.898,-26.718 -0.942,-9.801 -1.571,-19.961 -1.879,-30.473 -0.231,-10.539 -0.231,-20.617 0,-30.309 0.308,-9.691 0.707,-18.398 1.25,-26.09 0.629,-7.742 1.25,-13.679 1.879,-17.82 -0.242,-1.48 -1.063,-3.082 -2.5,-4.84 -1.492,-1.8 -3.129,-3.242 -5,-4.371 -1.879,-1.058 -3.91,-1.679 -6.102,-1.879 -2.109,-0.23 -3.82,0.469 -5.148,2.032 z" /><path
         id="path62"
         style="fill:#ffffff;fill-opacity:1;fill-rule:nonzero;stroke:none"
         d="m 1062.27,910 c -1.76,-1.48 -3.29,-2.93 -4.54,-4.379 -1.32,-1.48 -2.69,-2.891 -4.06,-4.211 -1.33,-1.25 -2.69,-2.308 -4.06,-3.129 -1.45,-0.742 -3.13,-1.172 -5,-1.25 -1.13,-0.312 -2.23,0.078 -3.28,1.25 -1.13,1.25 -2.19,2.699 -3.13,4.379 -1.01,1.641 -1.91,3.36 -2.65,5.149 -0.71,1.882 -1.1,3.32 -1.1,4.382 l 23.44,23.118 -17.66,74.071 c -0.39,2.57 0.86,3.98 3.75,4.21 2.82,0.32 5.75,0.47 8.75,0.47 0.43,0.08 1.1,0.08 2.04,0 0.85,-0.11 1.52,-0.23 2.03,-0.31 0.93,-5.23 1.99,-10.9 3.12,-17.031 1.17,-6.168 2.35,-12.309 3.6,-18.438 1.25,-6.172 2.61,-12.152 4.06,-17.972 1.37,-5.86 2.97,-10.93 4.84,-15.309 l 39.85,23.441 c 0.7,0.387 1.44,0.039 2.18,-1.101 0.82,-1.051 1.72,-2.418 2.66,-4.059 0.94,-1.562 1.72,-3.203 2.34,-4.84 0.71,-1.679 1.1,-2.5 1.1,-2.5 l -43.44,-33.601 c 0.43,-1.789 1.68,-5.891 3.75,-12.34 2.07,-6.48 4.45,-14.141 7.19,-22.969 2.69,-8.75 5.54,-18.242 8.59,-28.441 3.13,-10.11 6.02,-19.531 8.75,-28.281 2.81,-8.668 5.2,-16.329 7.19,-22.969 1.95,-6.559 3.2,-10.699 3.75,-12.34 1.01,-5.941 0.04,-9.34 -2.97,-10.16 -2.93,-0.738 -6.48,-0.07 -10.63,2.039 z" /></g></g></svg>